<svg id="Capa_1" data-name="Capa 1" xmlns="http://www.w3.org/2000/svg" viewBox="0 0 960.79 1009.25"><defs><style>.cls-1{fill:#00c2cb;}</style></defs><title>Vertical_Celeste</title><path class="cls-1" d="M540.61,74c32.2.25,62.67,5.16,90.94,14.5L609.43,66.91S590,33.49,540.12,35.46c-49.89-1.72-69.3,31.45-69.3,31.45L448.45,88.79A278.51,278.51,0,0,1,540.61,74Z" transform="translate(-59.6 -35.37)"/><path class="cls-1" d="M618.28,595.55c-2,3.69-3.2,5.9-4.43,8.11-7.37,13.27-14.5,26.79-21.63,40.06h41.29c-3.93-12.29-7.86-24.82-11.79-37.11C621,603.41,619.75,600.46,618.28,595.55Z" transform="translate(-59.6 -35.37)"/><path class="cls-1" d="M855.93,316.12c-2.71-7.13-6.15-14-9.83-17.7L709.21,164.48c-21.88-18.68-46.21-33.91-73.73-43.74-100-35.89-190-18.93-269.6,48.66l-132,129c-3.68,3.69-7.12,10.57-9.83,17.7a127.5,127.5,0,0,0-7.62,44v203c17.45,68.32,75.45,80.61,75.45,80.61H428.06c23.34-31.21,43.5-64.39,59-100.27,7.86-18.43,14.25-37.6,20.89-56.53,2.21-5.9,5.65-10.32,12-11.06,5.9-.73,10.81,1,13.76,6.15a42.32,42.32,0,0,1,2.71,7.12c-.74,2.95-1.23,5.41-2,7.62a512.8,512.8,0,0,1-71.52,147h34.66c2.7-3.93,5.16-7.87,7.61-11.8C544.79,567.53,569.86,498,579.69,423a426,426,0,0,0,2.95-46.94c.25-25.31-18.68-44.48-43.25-44.23-24.33.24-42.28,19.17-42.77,44.23C495.39,442.19,477,503.63,446,561.39c-12.29,22.85-27.78,44.24-42.28,66.11-3.68,5.4-9.09,7.86-15.72,6.14-6.15-1.72-10.33-5.9-10.33-11.79a24.18,24.18,0,0,1,4.67-13.28c25.32-34.16,46.21-70.78,61.2-110.59,15-40.06,23.84-81.35,24.57-124.6.74-38.34,29.25-67.34,67.59-70.29,35.39-2.7,68.08,23.6,74.22,60.21,1.23,6.89,1,14.26,1.23,19.91-2.95,73.24-20.89,141.07-50.87,206.2a583.51,583.51,0,0,1-29,54.55h29.49c16.46-30.22,31.45-61.19,45.22-92.65,3-6.39,6.88-11.06,14.5-10.57,7.12.25,11.55,4.18,14,12.29,9.58,30.23,19.17,60.71,28.26,90.93h124.6s57.75-12.28,75.45-80.61v-203A112.12,112.12,0,0,0,855.93,316.12ZM521.2,429.41c1.47-18.18,2.95-36.62,4.42-54.8.74-8.11,6.39-13.76,13.77-14,7.61-.25,14,5.41,14.74,13.52.49,5.4,0,10.81,0,16.22h.49c-1.72,14.25-3.19,28.51-5.16,42.51-1.23,9.1-8.11,14.5-16,13.52C525.38,445.39,520.46,438.51,521.2,429.41ZM296.57,371.66v-3.93c6.15-87,44.24-155.32,119-202,7.62-4.67,14.5-4.18,19.66,1a13.83,13.83,0,0,1,1.72,17.94,23.45,23.45,0,0,1-6.39,5.66c-56.52,35.14-90.44,85.52-102,150.65-2,10.32-2.46,20.89-3.19,31.46-.74,11.06-5.66,17.2-14.75,17C301.24,388.86,296.33,382.47,296.57,371.66ZM324.1,516.17c-7.13-4.18-9.1-12.29-4.67-20.4,14.5-25.07,25.07-51.61,30-80.12,2.95-17.2,3.69-34.65,4.92-52.1C360,274.83,426.83,202.33,514.56,190c8.36-1.23,17-1.47,23.35-2,56.77,1.22,103.22,21.38,140.33,61.68a21.37,21.37,0,0,1,5.41,9.09c1.72,5.9-1.48,12.29-6.88,15.24-5.66,3.2-12.29,2.21-17.21-2.7-7.62-7.13-14.5-14.75-22.61-21.14-93.14-73-231-20.15-251.17,96.34-2.7,15.24-2.7,30.72-3.93,46.2-3.19,42-16.71,80.86-37.6,117.23C339.58,518.13,331,520.35,324.1,516.17Zm378,107.89a13.79,13.79,0,0,1-17.45-7.38c-1.72-3.93-2.7-8.11-3.93-12-14.5-43.5-27-87.73-32.2-133.45-3.44-28.75-5.4-57.51-7.37-86.26-1-14.75-1.23-29.49-6.39-43.75-15.24-42.51-57.26-70-102-66.6-44.24,3.44-82.33,37.11-90.19,81.1-2.71,15-2.46,30.23-3.94,45.47-5.4,54.56-24.08,104.7-52.1,151.64-3.69,6.14-7.62,12-11.55,18.18-7.37,10.82-15.24,13.77-23.1,8.36s-8.11-13.27-.49-24.58c25.8-38.58,44.48-80.12,53.82-125.58a322.18,322.18,0,0,0,6.14-53.33c1.48-66.11,48.66-120.18,114.28-129a91.45,91.45,0,0,1,12.78-.74c72.75.25,129.77,56.53,131.24,126.82,1.47,77.41,14,152.62,39.57,225.85,1,3,2,5.9,2.7,9.1A14.84,14.84,0,0,1,702.08,624.06Zm50.38-75.21c-1.47,6.39-6.39,9.34-12.29,9.59-7.62,0-12.53-3.2-14.5-9.59-12.78-38.83-23.84-77.9-25.8-119-1.23-25.8-2.21-51.36-4.18-77.16-.74-9.34-3.69-18.44-6.14-27.28-3.2-10.82-.25-18.93,8.35-21.39,8.6-2.7,15.49,2,19.17,12.78,6.39,19.17,9.09,38.83,9.34,58.74.25,31.46.74,62.92,7.37,93.64,4.67,22.61,12.05,44.73,18.19,67.34C752.71,540.5,753.44,544.92,752.46,548.85Zm17.2-159.74c-9.33.24-14.5-6.15-14.74-18.19A214.94,214.94,0,0,0,619.26,175.3c-41.54-16.47-84.3-19.42-127.8-9.59-1.23.25-2.7.49-3.93.74-8.85,2-16.22-2.21-18.19-10.32-2-7.87,2.71-15.49,11.8-17.21,12.29-2.7,24.58-4.67,36.86-6.39,7.38-1,14.75-1,19.67-1.23,118.94.74,217.49,81.11,241.09,195.14,3,14.25,3.68,29.25,4.67,44C784.16,382.47,779,388.86,769.66,389.11Z" transform="translate(-59.6 -35.37)"/><path class="cls-1" d="M276,733.92a20.81,20.81,0,0,1,5.59,14.83v183.8q0,31.37-14.59,56.89a108.93,108.93,0,0,1-96,55.19c-20.67,0-39.63-4.87-56.65-14.83a106.62,106.62,0,0,1-40.11-40.36Q59.61,963.91,59.6,932.55A122.71,122.71,0,0,1,73,875.66a103.3,103.3,0,0,1,37-40.11A98.16,98.16,0,0,1,162.44,821,97.62,97.62,0,0,1,206,830.68a103.1,103.1,0,0,1,34.28,27V749c0-6.08,1.94-11.19,5.83-14.83a20.58,20.58,0,0,1,14.59-5.59C267.22,728.33,272.09,730.28,276,733.92ZM207.17,998.44a67.34,67.34,0,0,0,25.53-27.23,82.48,82.48,0,0,0,9.24-38.66,80.78,80.78,0,0,0-9.24-38.41,68.25,68.25,0,0,0-25.53-27,69.64,69.64,0,0,0-36.46-10c-13.37,0-25.53,3.17-36.47,10a70.56,70.56,0,0,0-25.77,27C102.15,905.56,99,918.45,99,932.55s3.16,27.23,9.48,38.66a69.77,69.77,0,0,0,62.24,37.19A68.39,68.39,0,0,0,207.17,998.44Z" transform="translate(-59.6 -35.37)"/><path class="cls-1" d="M359.85,778.9a25.15,25.15,0,0,1-7.78-18.72,26.56,26.56,0,0,1,26.5-26.5c7.29,0,13.37,2.68,18.72,7.78a25.16,25.16,0,0,1,7.78,18.72,25.67,25.67,0,0,1-7.78,18.72,25.16,25.16,0,0,1-18.72,7.78C371.28,786.68,365.2,784,359.85,778.9ZM364,1037.09c-3.89-3.89-5.83-8.75-5.83-14.83V843.08c0-6.07,1.94-11.18,5.83-14.83,3.89-3.89,8.76-5.59,14.59-5.59,6.08,0,11.18,2,14.83,5.59A20.77,20.77,0,0,1,399,843.08v179.18a21.58,21.58,0,0,1-5.59,14.83c-3.65,3.89-8.75,5.84-14.83,5.84A19.81,19.81,0,0,1,364,1037.09Z" transform="translate(-59.6 -35.37)"/><path class="cls-1" d="M635.3,832.63c14.83,8,26.26,19.94,34.77,35.25,8.26,15.56,12.4,34,12.4,55.68v99.19a20.77,20.77,0,0,1-5.84,14.83,19.79,19.79,0,0,1-14.59,5.83c-5.83,0-10.94-1.94-14.58-5.83a21,21,0,0,1-5.84-14.83V923.56c0-21.64-5.83-38.17-17.5-49.36s-27.23-16.77-46.44-16.77a68.47,68.47,0,0,0-30.87,6.81c-9.24,4.61-16.53,10.69-21.88,18.47s-7.78,16.53-7.78,26.26V1022.5a21.63,21.63,0,0,1-5.59,14.83c-3.65,3.89-8.76,5.84-14.83,5.84-5.84,0-11-2-14.59-5.84a20.94,20.94,0,0,1-5.84-14.83V842.84c0-6.08,1.95-11.18,5.84-14.83,3.89-3.89,8.75-5.59,14.59-5.59,6.07,0,11.18,1.94,14.83,5.59a20.8,20.8,0,0,1,5.59,14.83v4.38a88,88,0,0,1,30.63-19.94,103.08,103.08,0,0,1,37.93-7Q613.06,820.59,635.3,832.63Z" transform="translate(-59.6 -35.37)"/><path class="cls-1" d="M779.23,1036.12c-16.05-5.59-28.69-13.13-37.93-22.13A17.51,17.51,0,0,1,736,1001.6c0-6.57,2.68-11.67,8-15.81,5.11-3.64,9.73-5.59,14.11-5.59q8,0,15.31,7.3c5.11,5.59,12.64,10.45,22.85,14.83a86.52,86.52,0,0,0,32.58,6.32c15.32,0,27.23-2.68,35.74-7.78S877.2,989,877.2,980.44c0-8.26-4.13-15.31-12.4-20.66s-22.36-10.21-42.3-13.86c-51.54-10-77.31-31.12-77.31-63.69q0-19.69,11.67-33.55t30.63-20.43a116.29,116.29,0,0,1,40.36-6.8c17.5,0,33.06,2.91,46.92,8.51s24.8,13.37,32.82,23.33c3.41,4.38,5.35,8.51,5.35,12.89,0,4.62-2.19,8.75-6.81,12.4-2.91,2.19-6.8,3.16-11.18,3.16-7.05,0-13.37-2.67-19-7.78a64.61,64.61,0,0,0-21.4-13.13c-7.53-2.67-16.53-3.89-27.47-3.89-12.4,0-22.61,2.19-30.39,6.32-8,4.14-11.91,10-11.91,17.51,0,5.35,1.21,10,4.13,13.61,2.68,3.65,7.78,7,15.32,10,7.53,3.16,18.47,6.08,32.57,9,29.18,5.84,50.09,14.11,62.24,24.56s18.24,24.07,18.24,40.6a59.8,59.8,0,0,1-10,33.55c-6.81,10-16.53,18-29.66,23.82s-28.69,8.76-46.92,8.76A154.87,154.87,0,0,1,779.23,1036.12Z" transform="translate(-59.6 -35.37)"/><path class="cls-1" d="M975.18,778.9a25.15,25.15,0,0,1-7.78-18.72,25.7,25.7,0,0,1,7.78-18.72,25.15,25.15,0,0,1,18.72-7.78c7.29,0,13.37,2.68,18.72,7.78a24.8,24.8,0,0,1,7.78,18.72,26.47,26.47,0,0,1-45.22,18.72Zm3.89,258.19a20,20,0,0,1-5.84-14.83V843.08c0-6.07,1.95-11.18,5.84-14.83,3.89-3.89,8.75-5.59,14.58-5.59,6.08,0,11.19,2,14.83,5.59a20.78,20.78,0,0,1,5.6,14.83v179.18a21.59,21.59,0,0,1-5.6,14.83c-3.64,3.89-8.75,5.84-14.83,5.84A19.79,19.79,0,0,1,979.07,1037.09Z" transform="translate(-59.6 -35.37)"/></svg>