<svg id="Capa_1" data-name="Capa 1" xmlns="http://www.w3.org/2000/svg" viewBox="0 0 1072.97 1009.95"><defs><style>.cls-1{fill:#00c2cb;}</style></defs><title>Iso_Celeste</title><path class="cls-1" d="M541.45,99.2c53.43.4,103.6,8.56,150.9,24.06l-36.7-35.89s-31.81-55.47-115-52.21c-82.79-2.85-115,52.21-115,52.21l-37.11,36.3A465.09,465.09,0,0,1,541.45,99.2Z" transform="translate(-3.52 -35.03)"/><path class="cls-1" d="M670.74,964.63c-3.26,6.12-5.3,9.79-7.34,13.46-12.24,22-24.06,44.45-35.89,66.48H696c-6.53-20.4-13.06-41.2-19.58-61.59C675.23,978.09,673.19,972.79,670.74,964.63Z" transform="translate(-3.52 -35.03)"/><path class="cls-1" d="M1065.12,500.92c-4.49-11.83-9.79-23.25-16.31-29.37L821.64,249.28c-36.3-31-76.67-56.28-122.35-72.6-166-59.54-315.26-31.4-447.4,80.76l-219,214.11c-6.12,6.12-11.83,17.54-16.31,29.37a211.74,211.74,0,0,0-13,73V910.8c29,113.37,125.2,133.77,125.2,133.77H354.66c38.75-51.8,72.19-106.86,97.89-166.4,13.05-30.59,23.65-62.4,34.66-93.81,3.67-9.78,9.38-17.12,20-18.35,9.78-1.22,17.94,1.63,22.84,10.2,2.44,3.67,3.26,8.15,4.48,11.83-1.22,4.89-2,9-3.26,12.64-26.51,88.09-66.48,169.25-118.68,243.89h57.5c4.49-6.53,8.57-13,12.65-19.58C548.39,918.14,590,802.72,606.3,678.33c3.26-25.7,4.49-51.8,4.9-77.9.4-42-31.41-73.82-71.78-73.41s-70.15,31.81-71,73.41c-2,109.71-32.63,211.67-84,307.51-20.4,37.93-46.09,73.41-70.15,109.71-6.12,9-15.09,13.05-26.1,10.2-10.2-2.86-17.13-9.79-17.13-19.58,0-7.34,3.26-15.91,7.75-22,42-56.69,76.67-117.46,101.55-183.53,24.88-66.48,39.56-135,40.78-206.78,1.23-63.62,48.54-111.74,112.16-116.64,58.73-4.48,113,39.15,123.17,99.92,2,11.42,1.63,23.66,2,33-4.89,121.53-34.66,234.1-84.42,342.17A961.21,961.21,0,0,1,526,1045H574.9c27.32-50.16,52.2-101.55,75-153.75,4.89-10.6,11.42-18.35,24.06-17.54,11.42.41,19.17,6.93,23.25,20.39,15.91,50.17,31.81,100.74,46.9,150.9H950.93s96.25-20.39,125.2-133.77V574.33A178.87,178.87,0,0,0,1065.12,500.92Zm-555.48,188c2.45-30.18,4.9-60.77,7.34-90.95,1.23-13.46,10.61-22.84,22.84-23.24,12.65-.41,23.25,9,24.47,22.43.82,9,0,17.94,0,26.91h.82c-2.86,23.66-5.3,47.31-8.57,70.56-2,15.09-13.45,24.06-26.51,22.43C516.58,715.44,508.42,704.43,509.64,688.93ZM136.47,593.09v-6.53c10.2-144.37,73.41-257.75,197.39-335.24,12.65-7.75,24.07-6.93,32.63,1.63,8.16,8.16,9.38,20,2.86,29.77a39,39,0,0,1-10.61,9.38c-93.8,58.33-150.08,141.93-169.25,250-3.26,17.13-4.08,34.67-5.3,52.2-1.23,18.36-9.38,28.55-24.47,28.14C144.63,621.64,136.06,611.44,136.47,593.09Zm45.68,240.22c-11.83-6.94-15.09-20.4-7.75-33.86,24.06-41.59,41.6-85.64,49.76-133C229.05,638,230.27,609,232.31,580,241.69,432.81,352.62,312.5,498.22,292.1c13.87-2,28.14-2.44,38.75-3.26,94.21,2,171.29,35.48,232.87,102.37a35.62,35.62,0,0,1,9,15.09c2.85,9.79-2.45,20.39-11.42,25.28-9.38,5.31-20.4,3.67-28.55-4.48-12.65-11.83-24.07-24.47-37.52-35.08C546.76,270.9,318,358.58,284.52,551.9c-4.49,25.28-4.49,51-6.53,76.67-5.3,69.74-27.73,134.18-62.4,194.54C208.25,836.16,194,840.24,182.15,833.31Zm627.66,178.63a22.89,22.89,0,0,1-28.95-12.24c-2.86-6.52-4.49-13.46-6.94-20-24.06-72.19-44.86-145.6-53.42-221.46-5.31-47.71-9-95.43-12.24-143.15-1.63-24.47-2-48.94-10.6-72.59C672.37,472,602.63,426.28,528.4,432,455,437.7,391.78,493.57,378.73,566.58c-4.49,24.88-4.08,50.16-6.53,75.45-9,90.54-40,173.74-86.46,251.63-6.12,10.2-12.64,20-19.17,30.19-12.23,17.94-25.28,22.83-38.33,13.86s-13.46-22-.82-40.78c42.82-64,74.23-133,88.91-208.41A534.09,534.09,0,0,0,326.52,600C329,490.31,407.28,400.59,516.17,385.91a153.79,153.79,0,0,1,21.62-1.23c120.72.41,215.33,93.81,217.78,210.45,2.45,128.47,23.25,253.26,65.66,374.8,1.64,4.9,3.27,9.79,4.49,15.09A23.9,23.9,0,0,1,809.81,1011.94Zm83.61-124.8c-2.45,10.6-11,15.5-20.39,15.91-12.65,0-20.8-5.31-24.07-15.91-21.2-64.44-39.56-129.28-42.82-197.39-2-42.83-3.67-85.24-6.93-128.07-1.22-15.49-6.12-30.58-10.2-45.27-5.3-17.94-.4-31.4,13.87-35.48,14.27-4.48,25.69,3.27,31.81,21.21,10.6,31.81,15.09,64.44,15.5,97.47C851,651.82,851.41,704,862.42,755c7.75,37.52,20,74.23,29.78,111.75C893.83,873.27,894.64,880.61,893.42,887.14ZM922,622c-15.5.41-24.06-10.19-24.47-30.18-2.86-143.15-91.77-272-225.13-324.64C603.45,239.9,532.48,235,460.29,251.32c-2,.41-4.48.81-6.52,1.22-14.68,3.27-26.92-3.67-30.18-17.13-3.26-13,4.49-25.69,19.58-28.55,20.39-4.48,40.78-7.74,61.58-10.6,12.23-1.63,24.47-1.63,32.63-2,197.39,1.23,360.93,134.59,400.09,323.83,4.89,23.65,6.11,48.53,7.75,73C946,611,937.47,621.64,922,622Z" transform="translate(-3.52 -35.03)"/></svg>