<svg id="Capa_1" data-name="Capa 1" xmlns="http://www.w3.org/2000/svg" viewBox="0 0 1680.04 608.59"><defs><style>.cls-1{fill:#00c2cb;}</style></defs><title>Horizontal_Celeste</title><path class="cls-1" d="M348.05,67.5c32.2.25,62.67,5.16,90.94,14.5L416.87,60.37S397.45,27,347.56,28.92c-49.89-1.72-69.3,31.45-69.3,31.45L255.89,82.25A278.25,278.25,0,0,1,348.05,67.5Z" transform="translate(-23.89 -28.83)"/><path class="cls-1" d="M425.71,589c-2,3.68-3.19,5.9-4.42,8.11-7.37,13.27-14.5,26.79-21.63,40.06H441c-3.93-12.29-7.86-24.82-11.79-37.11C428.42,596.87,427.19,593.92,425.71,589Z" transform="translate(-23.89 -28.83)"/><path class="cls-1" d="M663.37,309.58c-2.71-7.13-6.15-14-9.83-17.7L516.65,157.94c-21.88-18.68-46.21-33.91-73.73-43.74-100-35.89-190-18.93-269.6,48.66l-132,129c-3.68,3.69-7.13,10.57-9.83,17.7a127.46,127.46,0,0,0-7.62,44v203c17.45,68.32,75.45,80.61,75.45,80.61H235.49c23.35-31.21,43.5-64.39,59-100.27,7.86-18.44,14.25-37.61,20.89-56.53,2.21-5.9,5.65-10.32,12-11.06,5.9-.74,10.81,1,13.76,6.15a42.32,42.32,0,0,1,2.71,7.12c-.74,3-1.23,5.41-2,7.62a513.07,513.07,0,0,1-71.52,147h34.66c2.7-3.93,5.16-7.87,7.61-11.8,39.57-64.39,64.64-133.94,74.47-208.9a426,426,0,0,0,2.95-46.94c.24-25.31-18.68-44.48-43.26-44.23-24.33.24-42.27,19.16-42.76,44.23-1.23,66.11-19.66,127.55-50.63,185.31-12.28,22.85-27.77,44.23-42.27,66.11-3.68,5.4-9.09,7.86-15.72,6.14-6.15-1.72-10.33-5.9-10.33-11.8A24.17,24.17,0,0,1,189.78,602C215.1,567.87,236,531.25,251,491.44c15-40.06,23.84-81.35,24.57-124.6.74-38.34,29.25-67.34,67.59-70.29,35.39-2.7,68.07,23.59,74.22,60.21,1.23,6.88,1,14.26,1.23,19.91-2.95,73.24-20.89,141.07-50.88,206.19a577.77,577.77,0,0,1-29,54.56h29.5c16.46-30.23,31.45-61.19,45.22-92.65,2.95-6.39,6.88-11.06,14.5-10.57,7.12.25,11.55,4.18,14,12.29,9.59,30.23,19.17,60.7,28.27,90.93H594.8s57.75-12.28,75.45-80.61v-203A112.09,112.09,0,0,0,663.37,309.58ZM328.64,422.87c1.47-18.18,2.95-36.62,4.42-54.8.74-8.11,6.39-13.77,13.76-14,7.62-.25,14,5.41,14.75,13.52.49,5.4,0,10.81,0,16.22h.49c-1.72,14.25-3.19,28.5-5.16,42.51-1.23,9.1-8.11,14.5-16,13.52C332.82,438.85,327.9,432,328.64,422.87ZM104,365.12v-3.93c6.15-87,44.24-155.33,119-202,7.62-4.67,14.5-4.18,19.66,1a13.83,13.83,0,0,1,1.72,17.94,23.45,23.45,0,0,1-6.39,5.66c-56.52,35.14-90.44,85.52-102,150.65-2,10.32-2.46,20.89-3.19,31.46-.74,11.06-5.66,17.2-14.75,16.95C108.68,382.32,103.77,375.93,104,365.12Zm27.53,144.51c-7.13-4.18-9.1-12.29-4.67-20.4,14.5-25.07,25.07-51.61,30-80.12,3-17.2,3.69-34.65,4.92-52.1,5.65-88.72,72.5-161.22,160.23-173.51,8.36-1.23,17-1.47,23.35-2,56.77,1.23,103.22,21.39,140.33,61.69a21.47,21.47,0,0,1,5.41,9.09c1.72,5.9-1.48,12.29-6.88,15.24-5.66,3.2-12.29,2.21-17.21-2.7-7.62-7.13-14.5-14.75-22.61-21.14-93.14-73-231-20.15-251.17,96.34-2.7,15.24-2.7,30.72-3.93,46.2-3.19,42-16.71,80.86-37.6,117.23C147,511.59,138.42,513.8,131.54,509.63Zm378,107.89a13.8,13.8,0,0,1-17.45-7.38c-1.72-3.93-2.7-8.11-3.93-12-14.5-43.5-27-87.74-32.2-133.45-3.44-28.75-5.4-57.51-7.37-86.26-1-14.75-1.23-29.49-6.39-43.75-15.24-42.51-57.26-70-102-66.6-44.24,3.44-82.33,37.11-90.2,81.1-2.7,15-2.45,30.23-3.93,45.47C240.66,449.17,222,499.3,194,546.25c-3.69,6.14-7.62,12-11.55,18.18-7.37,10.82-15.24,13.76-23.1,8.36s-8.11-13.27-.49-24.58c25.8-38.58,44.48-80.12,53.82-125.58a322.18,322.18,0,0,0,6.14-53.33c1.48-66.11,48.66-120.18,114.28-129a91.45,91.45,0,0,1,12.78-.74c72.75.25,129.76,56.53,131.24,126.82,1.47,77.41,14,152.62,39.57,225.85,1,2.95,2,5.9,2.7,9.1A14.84,14.84,0,0,1,509.52,617.52Zm50.38-75.21c-1.47,6.39-6.39,9.34-12.29,9.59-7.62,0-12.53-3.2-14.5-9.59-12.78-38.83-23.84-77.9-25.8-118.95-1.23-25.8-2.21-51.36-4.18-77.17-.74-9.33-3.69-18.43-6.14-27.28-3.2-10.81-.25-18.92,8.35-21.38,8.6-2.7,15.48,2,19.17,12.78,6.39,19.17,9.09,38.83,9.34,58.74.25,31.46.74,62.92,7.37,93.64,4.67,22.61,12,44.72,18.19,67.33C560.15,534,560.88,538.38,559.9,542.31Zm17.2-159.74c-9.34.24-14.5-6.15-14.74-18.19A215,215,0,0,0,426.7,168.75c-41.54-16.46-84.3-19.41-127.8-9.58-1.23.25-2.7.49-3.93.74-8.85,2-16.22-2.22-18.19-10.33-2-7.86,2.71-15.48,11.8-17.2,12.29-2.7,24.58-4.67,36.86-6.39,7.38-1,14.75-1,19.66-1.23,119,.74,217.5,81.1,241.1,195.14,2.95,14.25,3.68,29.24,4.67,44C591.6,375.93,586.44,382.32,577.1,382.57Z" transform="translate(-23.89 -28.83)"/><path class="cls-1" d="M959.51,326.48a20.75,20.75,0,0,1,5.59,14.83V525.1q0,31.36-14.58,56.89a109,109,0,0,1-96,55.19c-20.66,0-39.62-4.86-56.64-14.83A106.64,106.64,0,0,1,757.72,582q-14.58-25.53-14.58-56.89a122.71,122.71,0,0,1,13.37-56.89,103.2,103.2,0,0,1,37-40.11,102,102,0,0,1,96-4.86,103,103,0,0,1,34.28,27V341.55c0-6.08,2-11.18,5.84-14.83a20.57,20.57,0,0,1,14.58-5.59C950.76,320.88,955.62,322.83,959.51,326.48ZM890.71,591a67.34,67.34,0,0,0,25.53-27.23,82.6,82.6,0,0,0,9.23-38.66,80.89,80.89,0,0,0-9.23-38.41,68.25,68.25,0,0,0-25.53-27,69.67,69.67,0,0,0-36.47-10c-13.37,0-25.53,3.16-36.47,10a70.56,70.56,0,0,0-25.77,27c-6.32,11.43-9.48,24.31-9.48,38.41s3.16,27.23,9.48,38.66A69.77,69.77,0,0,0,854.24,601,68.43,68.43,0,0,0,890.71,591Z" transform="translate(-23.89 -28.83)"/><path class="cls-1" d="M1043.39,371.45a25.15,25.15,0,0,1-7.78-18.72,26.56,26.56,0,0,1,26.5-26.5c7.29,0,13.37,2.68,18.72,7.78a25.2,25.2,0,0,1,7.78,18.72,25.71,25.71,0,0,1-7.78,18.72,25.16,25.16,0,0,1-18.72,7.78A26.06,26.06,0,0,1,1043.39,371.45Zm4.13,258.19a20,20,0,0,1-5.84-14.83V435.63c0-6.07,2-11.18,5.84-14.83,3.89-3.89,8.75-5.59,14.59-5.59,6.07,0,11.18,2,14.83,5.59a20.81,20.81,0,0,1,5.59,14.83V614.81a21.63,21.63,0,0,1-5.59,14.83c-3.65,3.89-8.76,5.84-14.83,5.84A19.79,19.79,0,0,1,1047.52,629.64Z" transform="translate(-23.89 -28.83)"/><path class="cls-1" d="M1318.84,425.18c14.83,8,26.25,19.94,34.76,35.25,8.27,15.56,12.4,34,12.4,55.68V615.3a20.76,20.76,0,0,1-5.83,14.83,19.8,19.8,0,0,1-14.59,5.83c-5.84,0-10.94-1.94-14.59-5.83a21,21,0,0,1-5.83-14.83V516.11c0-21.64-5.84-38.17-17.51-49.36S1280.42,450,1261.22,450a68.48,68.48,0,0,0-30.88,6.81c-9.24,4.61-16.53,10.69-21.88,18.47s-7.78,16.53-7.78,26.26V615.05a21.58,21.58,0,0,1-5.59,14.83c-3.65,3.89-8.75,5.84-14.83,5.84-5.83,0-10.94-2-14.59-5.84a21,21,0,0,1-5.83-14.83V435.39c0-6.08,1.94-11.18,5.83-14.83,3.89-3.89,8.76-5.59,14.59-5.59,6.08,0,11.18,1.94,14.83,5.59a20.75,20.75,0,0,1,5.59,14.83v4.38a88,88,0,0,1,30.63-19.94,103.16,103.16,0,0,1,37.93-7.05Q1296.59,413.14,1318.84,425.18Z" transform="translate(-23.89 -28.83)"/><path class="cls-1" d="M1462.76,628.67c-16-5.59-28.69-13.13-37.93-22.12a17.54,17.54,0,0,1-5.34-12.4c0-6.57,2.67-11.67,8-15.81,5.1-3.64,9.72-5.59,14.1-5.59q8,0,15.32,7.3c5.1,5.59,12.64,10.45,22.85,14.83a86.44,86.44,0,0,0,32.58,6.32c15.31,0,27.23-2.68,35.73-7.78s12.65-11.92,12.65-20.42c0-8.27-4.14-15.32-12.4-20.67S1526,542.12,1506,538.47q-77.31-14.94-77.32-63.69,0-19.69,11.67-33.55T1471,420.8a116.46,116.46,0,0,1,40.35-6.8c17.51,0,33.07,2.91,46.93,8.51s24.79,13.37,32.82,23.34c3.4,4.37,5.34,8.5,5.34,12.88,0,4.62-2.18,8.75-6.8,12.4-2.92,2.19-6.81,3.16-11.19,3.16-7,0-13.37-2.67-19-7.78a64.67,64.67,0,0,0-21.39-13.13c-7.54-2.67-16.53-3.89-27.48-3.89-12.39,0-22.6,2.19-30.38,6.32-8,4.14-11.92,10-11.92,17.51,0,5.35,1.22,10,4.14,13.61,2.67,3.65,7.78,7.05,15.31,10,7.54,3.16,18.48,6.08,32.58,9,29.17,5.84,50.08,14.11,62.24,24.56s18.23,24.07,18.23,40.6a59.72,59.72,0,0,1-10,33.55c-6.8,10-16.53,18-29.66,23.83s-28.68,8.75-46.92,8.75A154.92,154.92,0,0,1,1462.76,628.67Z" transform="translate(-23.89 -28.83)"/><path class="cls-1" d="M1658.71,371.45a25.15,25.15,0,0,1-7.78-18.72,25.74,25.74,0,0,1,7.78-18.72,25.16,25.16,0,0,1,18.72-7.78c7.3,0,13.37,2.68,18.72,7.78a24.8,24.8,0,0,1,7.78,18.72,26.47,26.47,0,0,1-45.22,18.72Zm3.89,258.19c-3.89-3.89-5.83-8.75-5.83-14.83V435.63c0-6.07,1.94-11.18,5.83-14.83,3.89-3.89,8.75-5.59,14.59-5.59,6.08,0,11.18,2,14.83,5.59a20.77,20.77,0,0,1,5.59,14.83V614.81a21.58,21.58,0,0,1-5.59,14.83c-3.65,3.89-8.75,5.84-14.83,5.84A19.79,19.79,0,0,1,1662.6,629.64Z" transform="translate(-23.89 -28.83)"/></svg>